<svg width="21" height="22" viewBox="0 0 21 22" fill="none" xmlns="http://www.w3.org/2000/svg">
<g clip-path="url(#clip0_22_47)">
<path d="M18.7323 3.10474C19.8021 3.10474 20.6701 3.9723 20.6701 5.04253C20.6701 5.65213 20.3834 6.22539 19.8949 6.59277L11.1103 13.1813C10.65 13.5244 10.0203 13.5244 9.56003 13.1813L0.775362 6.59277C0.287401 6.22539 0.000244141 5.65213 0.000244141 5.04253C0.000244141 3.9723 0.867811 3.10474 1.93804 3.10474H18.7323ZM8.78491 14.2148C9.70537 14.9051 10.9649 14.9051 11.8854 14.2148L20.6701 7.62626V16.0234C20.6701 17.4485 19.5114 18.6071 18.0863 18.6071H2.58397C1.15687 18.6071 0.000244141 17.4485 0.000244141 16.0234V7.62626L8.78491 14.2148Z" fill="white"/>
</g>
<defs>
<clipPath id="clip0_22_47">
<rect width="20.6698" height="20.6698" fill="white" transform="translate(0 0.520874)"/>
</clipPath>
</defs>
</svg>
