<svg width="26" height="25" viewBox="0 0 26 25" fill="none" xmlns="http://www.w3.org/2000/svg">
<g clip-path="url(#clip0_9_101)">
<path d="M0.355164 9.26902V8.9874C0.355164 5.59346 2.80813 2.69865 6.15255 2.14124C8.32293 1.77272 10.6195 2.49423 12.2024 4.07953L12.7851 4.66121L13.324 4.07953C14.9506 2.49423 17.2035 1.77272 19.4176 2.14124C22.763 2.69865 25.215 5.59346 25.215 8.9874V9.26902C25.215 11.284 24.3798 13.2116 22.9038 14.5857L14.13 22.7768C13.7659 23.1167 13.2852 23.3061 12.7851 23.3061C12.285 23.3061 11.8043 23.1167 11.4401 22.7768L2.66586 14.5857C1.19175 13.2116 0.355178 11.284 0.355178 9.26902H0.355164Z" fill="white"/>
</g>
<defs>
<clipPath id="clip0_9_101">
<rect width="24.8598" height="24.8598" fill="white" transform="translate(0.355164)"/>
</clipPath>
</defs>
</svg>
