<svg width="512" height="505" viewBox="0 0 512 505" fill="none" xmlns="http://www.w3.org/2000/svg">
<path d="M119.4 37.1C142.7 33.22 166.2 35.2 187.1 42.43L237.8 119.9L162.3 195.3C160.8 196.9 159.1 198.1 160 201.2C160 203.3 160.1 205.4 162.6 206.9L274.6 310.9C277.5 313.6 281.1 313.7 285.1 311.2C288.2 308.6 288.9 304.2 286.8 300.8L226.4 202.7L317.1 127.1C319.7 124.1 320.7 121.5 319.5 118.3L296.8 54.74C325.4 38.03 359.2 31.53 392.6 37.1C461.5 48.58 512 108.2 512 178.1V183.9C512 225.4 494.8 265.1 464.4 293.4L283.7 462.1C276.2 469.1 266.3 473 256 473C245.7 473 235.8 469.1 228.3 462.1L47.59 293.4C17.23 265.1 0 225.4 0 183.9V178.1C0 108.2 50.52 48.58 119.4 37.09V37.1Z" fill="white"/>
</svg>
