<svg width="21" height="21" viewBox="0 0 21 21" fill="none" xmlns="http://www.w3.org/2000/svg">
<g clip-path="url(#clip0_22_51)">
<path d="M7.10549 10.3764C7.10549 8.59202 8.55076 7.14675 10.3351 7.14675C12.1195 7.14675 13.5648 8.59202 13.5648 10.3764C13.5648 12.1608 12.1195 13.6061 10.3351 13.6061C8.55076 13.6061 7.10549 12.1608 7.10549 10.3764ZM10.3351 0.0415039C11.0497 0.0415039 11.627 0.620016 11.627 1.33337V2.73221C14.8728 3.27681 17.4364 5.83874 17.9773 9.08455H19.3782C20.0928 9.08455 20.6701 9.66185 20.6701 10.3764C20.6701 11.091 20.0928 11.6683 19.3782 11.6683H17.9773C17.4364 14.9141 14.8728 17.4776 11.627 18.0186V19.4195C11.627 20.134 11.0497 20.7113 10.3351 20.7113C9.62059 20.7113 9.04329 20.134 9.04329 19.4195V18.0186C5.79748 17.4776 3.23555 14.9141 2.69095 11.6683H1.29211C0.578757 11.6683 0.000244141 11.091 0.000244141 10.3764C0.000244141 9.66185 0.578757 9.08455 1.29211 9.08455H2.69095C3.23555 5.83874 5.79748 3.27681 9.04329 2.73221V1.33337C9.04329 0.620016 9.62059 0.0415039 10.3351 0.0415039ZM5.1677 10.3764C5.1677 13.2306 7.48094 15.5439 10.3351 15.5439C13.1894 15.5439 15.5026 13.2306 15.5026 10.3764C15.5026 7.5222 13.1894 5.20896 10.3351 5.20896C7.48094 5.20896 5.1677 7.5222 5.1677 10.3764Z" fill="white"/>
</g>
<defs>
<clipPath id="clip0_22_51">
<rect width="20.6698" height="20.6698" fill="white" transform="translate(0 0.0415039)"/>
</clipPath>
</defs>
</svg>
