<svg width="21" height="22" viewBox="0 0 21 22" fill="none" xmlns="http://www.w3.org/2000/svg">
<g clip-path="url(#clip0_22_42)">
<path d="M20.6378 16.214L19.6991 20.2834C19.5673 20.8587 19.0617 21.2612 18.4694 21.2612C8.28432 21.2604 0.000244141 12.9763 0.000244141 2.79077C0.000244141 2.19894 0.4027 1.69269 0.978023 1.56149L5.04739 0.622866C5.64003 0.485525 6.2456 0.79315 6.49186 1.35438L8.3699 5.73461C8.58944 6.25054 8.44136 6.85166 8.00737 7.20612L5.83381 8.95135C7.20561 11.7458 9.47768 14.0179 12.2729 15.3905L14.0525 13.2185C14.4032 12.7833 15.0089 12.6328 15.5248 12.8562L19.905 14.7338C20.4319 15.011 20.775 15.6246 20.6378 16.214Z" fill="white"/>
</g>
<defs>
<clipPath id="clip0_22_42">
<rect width="20.6698" height="20.6698" fill="white" transform="translate(0 0.590576)"/>
</clipPath>
</defs>
</svg>
