<svg width="25" height="25" viewBox="0 0 25 25" fill="none" xmlns="http://www.w3.org/2000/svg">
<g clip-path="url(#clip0_9_149)">
<path d="M0 9.26902V8.9874C0 5.59346 2.45296 2.69865 5.79739 2.14124C7.96776 1.77272 10.2644 2.49423 11.8473 4.07953L12.4299 4.66121L12.9689 4.07953C14.5954 2.49423 16.8484 1.77272 19.0624 2.14124C22.4078 2.69865 24.8598 5.59346 24.8598 8.9874V9.26902C24.8598 11.284 24.0247 13.2116 22.5486 14.5857L13.7749 22.7768C13.4107 23.1167 12.93 23.3061 12.4299 23.3061C11.9298 23.3061 11.4491 23.1167 11.085 22.7768L2.3107 14.5857C0.836591 13.2116 1.45663e-05 11.284 1.45663e-05 9.26902H0Z" fill="#F11717"/>
</g>
<defs>
<clipPath id="clip0_9_149">
<rect width="24.8598" height="24.8598" fill="white"/>
</clipPath>
</defs>
</svg>
